<?xml version="1.0" encoding="us-ascii" standalone="no"?><svg xmlns="http://www.w3.org/2000/svg" xmlns:xlink="http://www.w3.org/1999/xlink" contentStyleType="text/css" height="798px" preserveAspectRatio="none" style="width:705px;height:798px;background:#FFFFFF;" version="1.1" viewBox="0 0 705 798" width="705px" zoomAndPan="magnify"><defs/><g><!--cluster HoppyBrew--><g id="cluster_HoppyBrew"><rect fill="none" height="785" rx="2.5" ry="2.5" style="stroke:#181818;stroke-width:1.0;" width="238" x="347" y="7"/><text fill="#000000" font-family="sans-serif" font-size="14" font-weight="bold" lengthAdjust="spacing" textLength="91" x="420.5" y="21.9951">HoppyBrew</text></g><g id="elem_ManageUsers"><ellipse cx="465.8343" cy="59.1669" fill="#F1F1F1" rx="73.8343" ry="17.1669" style="stroke:#181818;stroke-width:0.5;"/><text fill="#000000" font-family="sans-serif" font-size="14" lengthAdjust="spacing" textLength="103" x="411.3343" y="62.9144">Manage  Users</text></g><g id="elem_ManageRecipes"><ellipse cx="466.0591" cy="284.1118" fill="#F1F1F1" rx="78.5591" ry="18.1118" style="stroke:#181818;stroke-width:0.5;"/><text fill="#000000" font-family="sans-serif" font-size="14" lengthAdjust="spacing" textLength="115" x="406.3328" y="287.6525">Manage Recipes</text></g><g id="elem_DefineWaterProfile"><ellipse cx="466.1635" cy="357.1327" fill="#F1F1F1" rx="86.1635" ry="19.6327" style="stroke:#181818;stroke-width:0.5;"/><text fill="#000000" font-family="sans-serif" font-size="14" lengthAdjust="spacing" textLength="133" x="399.6635" y="359.9794">Define water profile</text></g><g id="elem_CreateBatch"><ellipse cx="465.964" cy="127.1928" fill="#F1F1F1" rx="68.964" ry="16.1928" style="stroke:#181818;stroke-width:0.5;"/><text fill="#000000" font-family="sans-serif" font-size="14" lengthAdjust="spacing" textLength="90" x="417.964" y="130.9404">Create Batch</text></g><g id="elem_ManageBatches"><ellipse cx="465.9652" cy="213.193" fill="#F1F1F1" rx="78.9652" ry="18.193" style="stroke:#181818;stroke-width:0.5;"/><text fill="#000000" font-family="sans-serif" font-size="14" lengthAdjust="spacing" textLength="116" x="405.9" y="216.6886">Manage Batches</text></g><g id="elem_ManageProfiles"><ellipse cx="466.0599" cy="519.0473" fill="#F1F1F1" rx="88.5599" ry="26.0473" style="stroke:#181818;stroke-width:0.5;"/><text fill="#000000" font-family="sans-serif" font-size="14" lengthAdjust="spacing" textLength="74" x="429.0599" y="513.7455">{abstract}</text><text fill="#000000" font-family="sans-serif" font-size="14" lengthAdjust="spacing" textLength="109" x="411.5599" y="530.0424">Manage Profiles</text></g><g id="elem_ManageDevices"><ellipse cx="466.1551" cy="758.031" fill="#F1F1F1" rx="78.1551" ry="18.031" style="stroke:#181818;stroke-width:0.5;"/><text fill="#000000" font-family="sans-serif" font-size="14" lengthAdjust="spacing" textLength="114" x="406.7659" y="761.6166">Manage Devices</text></g><g id="elem_ManageInventory"><ellipse cx="465.9455" cy="599.1891" fill="#F1F1F1" rx="81.4455" ry="18.6891" style="stroke:#181818;stroke-width:0.5;"/><text fill="#000000" font-family="sans-serif" font-size="14" lengthAdjust="spacing" textLength="122" x="403.8109" y="602.409">Manage Inventory</text></g><g id="elem_ManageSystemSettings"><ellipse cx="466.1608" cy="435.0322" fill="#F1F1F1" rx="103.1608" ry="23.0322" style="stroke:#181818;stroke-width:0.5;"/><text fill="#000000" font-family="sans-serif" font-size="14" lengthAdjust="spacing" textLength="171" x="380.6608" y="437.8788">Manage System Settings</text></g><g id="elem_CollectRealtimeData"><ellipse cx="465.8675" cy="679.0473" fill="#F1F1F1" rx="79.3675" ry="26.0473" style="stroke:#181818;stroke-width:0.5;"/><text fill="#000000" font-family="sans-serif" font-size="14" lengthAdjust="spacing" textLength="47" x="442.3675" y="673.7455">Collect</text><text fill="#000000" font-family="sans-serif" font-size="14" lengthAdjust="spacing" textLength="96" x="417.8675" y="690.0424">Realtime Data</text></g><!--entity Admin--><g id="elem_Admin"><ellipse cx="51.5" cy="165.5" fill="#F1F1F1" rx="8" ry="8" style="stroke:#181818;stroke-width:0.5;"/><path d="M51.5,173.5 L51.5,200.5 M38.5,181.5 L64.5,181.5 M51.5,200.5 L38.5,215.5 M51.5,200.5 L64.5,215.5 " fill="none" style="stroke:#181818;stroke-width:0.5;"/><text fill="#000000" font-family="sans-serif" font-size="14" lengthAdjust="spacing" textLength="91" x="6" y="229.9951">Administrator</text></g><!--entity Brewer--><g id="elem_Brewer"><ellipse cx="51.5" cy="405.5" fill="#F1F1F1" rx="8" ry="8" style="stroke:#181818;stroke-width:0.5;"/><path d="M51.5,413.5 L51.5,440.5 M38.5,421.5 L64.5,421.5 M51.5,440.5 L38.5,455.5 M51.5,440.5 L64.5,455.5 " fill="none" style="stroke:#181818;stroke-width:0.5;"/><text fill="#000000" font-family="sans-serif" font-size="14" lengthAdjust="spacing" textLength="49" x="27" y="469.9951">Brewer</text></g><!--entity DB--><g id="elem_DB"><ellipse cx="665" cy="372.5" fill="#F1F1F1" rx="8" ry="8" style="stroke:#181818;stroke-width:0.5;"/><path d="M665,380.5 L665,407.5 M652,388.5 L678,388.5 M665,407.5 L652,422.5 M665,407.5 L678,422.5 " fill="none" style="stroke:#181818;stroke-width:0.5;"/><text fill="#000000" font-family="sans-serif" font-size="14" lengthAdjust="spacing" textLength="66" x="632" y="436.9951">Database</text></g><!--entity ISpindel--><g id="elem_ISpindel"><ellipse cx="665" cy="693.5" fill="#F1F1F1" rx="8" ry="8" style="stroke:#181818;stroke-width:0.5;"/><path d="M665,701.5 L665,728.5 M652,709.5 L678,709.5 M665,728.5 L652,743.5 M665,728.5 L678,743.5 " fill="none" style="stroke:#181818;stroke-width:0.5;"/><text fill="#000000" font-family="sans-serif" font-size="14" lengthAdjust="spacing" textLength="54" x="638" y="757.9951">ISpindel</text></g><!--entity AbstractUser--><g id="elem_AbstractUser"><ellipse cx="195" cy="405.5" fill="#F1F1F1" rx="8" ry="8" style="stroke:#181818;stroke-width:0.5;"/><path d="M195,413.5 L195,440.5 M182,421.5 L208,421.5 M195,440.5 L182,455.5 M195,440.5 L208,455.5 " fill="none" style="stroke:#181818;stroke-width:0.5;"/><text fill="#000000" font-family="sans-serif" font-size="14" lengthAdjust="spacing" textLength="74" x="158" y="469.9951">{abstract}</text></g><!--link Admin to AbstractUser--><g id="link_Admin_AbstractUser"><path d="M74.92,233.03 C101.34,277.84 135.8387,336.344 162.3087,381.244 " fill="none" id="Admin-to-AbstractUser" style="stroke:#181818;stroke-width:1.0;"/><polygon fill="none" points="171.45,396.75,167.4774,378.1969,157.14,384.2911,171.45,396.75" style="stroke:#181818;stroke-width:1.0;"/></g><!--link Brewer to AbstractUser--><g id="link_Brewer_AbstractUser"><path d="M76.18,435 C98.45,435 114.1,435 139.74,435 " fill="none" id="Brewer-to-AbstractUser" style="stroke:#181818;stroke-width:1.0;"/><polygon fill="none" points="157.74,435,139.74,429,139.74,441,157.74,435" style="stroke:#181818;stroke-width:1.0;"/></g><!--link Admin to ManageUsers--><g id="link_Admin_ManageUsers"><path d="M97.29,177.82 C153.36,156.6 252.57,120 339,93 C363.98,85.2 386.2644,79.0249 409.5644,72.9449 " fill="none" id="Admin-to-ManageUsers" style="stroke:#181818;stroke-width:1.0;"/><polygon fill="#181818" points="415.37,71.43,405.6516,69.832,410.532,72.6924,407.6716,77.5728,415.37,71.43" style="stroke:#181818;stroke-width:1.0;"/></g><!--link AbstractUser to ManageRecipes--><g id="link_AbstractUser_ManageRecipes"><path d="M232.21,399 C259.5,373.68 298.97,340.73 339,320 C359.81,309.23 378.4604,302.7897 400.2704,297.1597 " fill="none" id="AbstractUser-to-ManageRecipes" style="stroke:#181818;stroke-width:1.0;"/><polygon fill="#181818" points="406.08,295.66,396.3659,294.0365,401.2387,296.9097,398.3654,301.7825,406.08,295.66" style="stroke:#181818;stroke-width:1.0;"/></g><!--link AbstractUser to ManageBatches--><g id="link_AbstractUser_ManageBatches"><path d="M197.36,396.6 C201.18,351.43 214.8,277.7 262,239 C298.96,208.7 347.1235,202.854 390.2035,204.334 " fill="none" id="AbstractUser-to-ManageBatches" style="stroke:#181818;stroke-width:1.0;"/><polygon fill="#181818" points="396.2,204.54,387.3426,200.2333,391.2029,204.3683,387.068,208.2286,396.2,204.54" style="stroke:#181818;stroke-width:1.0;"/></g><!--link AbstractUser to ManageProfiles--><g id="link_AbstractUser_ManageProfiles"><path d="M232.28,446.33 C276.45,460.12 345.9626,481.832 398.9126,498.362 " fill="none" id="AbstractUser-to-ManageProfiles" style="stroke:#181818;stroke-width:1.0;"/><polygon fill="#181818" points="404.64,500.15,397.2409,493.6498,399.8672,498.66,394.8569,501.2863,404.64,500.15" style="stroke:#181818;stroke-width:1.0;"/></g><!--link AbstractUser to ManageDevices--><g id="link_AbstractUser_ManageDevices"><path d="M204.49,473.29 C220.17,534.95 259.58,656 339,722 C355.45,735.67 370.9898,742.6527 391.4398,747.9227 " fill="none" id="AbstractUser-to-ManageDevices" style="stroke:#181818;stroke-width:1.0;"/><polygon fill="#181818" points="397.25,749.42,389.5329,743.3006,392.4082,748.1723,387.5365,751.0475,397.25,749.42" style="stroke:#181818;stroke-width:1.0;"/></g><!--link AbstractUser to ManageInventory--><g id="link_AbstractUser_ManageInventory"><path d="M229.87,473.06 C256.88,501.28 297.03,538.75 339,562 C359.04,573.1 376.9738,579.6395 398.3938,585.3695 " fill="none" id="AbstractUser-to-ManageInventory" style="stroke:#181818;stroke-width:1.0;"/><polygon fill="#181818" points="404.19,586.92,396.5294,580.7301,399.3598,585.6279,394.462,588.4583,404.19,586.92" style="stroke:#181818;stroke-width:1.0;"/></g><!--link AbstractUser to ManageSystemSettings--><g id="link_AbstractUser_ManageSystemSettings"><path d="M232.28,435 C265.69,435 310.89,435 356.77,435 " fill="none" id="AbstractUser-to-ManageSystemSettings" style="stroke:#181818;stroke-width:1.0;"/><polygon fill="#181818" points="362.77,435,353.77,431,357.77,435,353.77,439,362.77,435" style="stroke:#181818;stroke-width:1.0;"/></g><!--link CreateBatch to ManageBatches--><g id="link_CreateBatch_ManageBatches"><path d="M466,143.18 C466,157.86 466,173.48 466,188.76 " fill="none" id="CreateBatch-to-ManageBatches" style="stroke:#181818;stroke-width:1.0;stroke-dasharray:7.0,7.0;"/><polygon fill="#181818" points="466,194.76,470,185.76,466,189.76,462,185.76,466,194.76" style="stroke:#181818;stroke-width:1.0;"/><text fill="#000000" font-family="sans-serif" font-size="13" lengthAdjust="spacing" textLength="67" x="421" y="173.5669">&#171;extends&#187;</text></g><!--link ManageRecipes to CreateBatch--><g id="link_ManageRecipes_CreateBatch"><path d="M404.58,295.31 C365.75,298.58 317.82,294.75 290,263.5 C241.98,209.56 351.9859,163.5714 418.0959,141.6114 " fill="none" id="ManageRecipes-to-CreateBatch" style="stroke:#181818;stroke-width:1.0;stroke-dasharray:7.0,7.0;"/><polygon fill="#181818" points="423.79,139.72,413.9879,138.7611,419.0449,141.2962,416.5098,146.3532,423.79,139.72" style="stroke:#181818;stroke-width:1.0;"/><text fill="#000000" font-family="sans-serif" font-size="13" lengthAdjust="spacing" textLength="67" x="263" y="259.5669">&#171;extends&#187;</text></g><!--link CreateBatch to DB--><g id="link_CreateBatch_DB"><path d="M520.24,137.02 C545.36,144.25 573.92,156.5 593,177 C641.55,229.18 656.3105,308.399 661.1705,357.629 " fill="none" id="CreateBatch-to-DB" style="stroke:#181818;stroke-width:1.0;"/><polygon fill="#181818" points="661.76,363.6,664.8565,354.2506,661.2688,358.6242,656.8952,355.0365,661.76,363.6" style="stroke:#181818;stroke-width:1.0;"/></g><!--link ManageInventory to DB--><g id="link_ManageInventory_DB"><path d="M537.11,589.74 C556.96,584.3 577.39,575.67 593,562 C629.23,530.26 646.3931,482.3179 655.2931,445.9679 " fill="none" id="ManageInventory-to-DB" style="stroke:#181818;stroke-width:1.0;"/><polygon fill="#181818" points="656.72,440.14,650.6944,447.9305,655.5309,444.9965,658.4649,449.8331,656.72,440.14" style="stroke:#181818;stroke-width:1.0;"/></g><!--link ManageRecipes to DB--><g id="link_ManageRecipes_DB"><path d="M530.26,294.51 C551.33,299.93 574.2,308.01 593,320 C610.62,331.24 622.6215,343.4177 634.7415,358.9677 " fill="none" id="ManageRecipes-to-DB" style="stroke:#181818;stroke-width:1.0;"/><polygon fill="#181818" points="638.43,363.7,636.0522,354.1425,635.3563,359.7564,629.7424,359.0605,638.43,363.7" style="stroke:#181818;stroke-width:1.0;"/></g><!--link ManageProfiles to DB--><g id="link_ManageProfiles_DB"><path d="M533.75,502.07 C553.7,495.37 575.03,486.46 593,475 C607.76,465.59 617.6391,456.9384 629.2091,444.4684 " fill="none" id="ManageProfiles-to-DB" style="stroke:#181818;stroke-width:1.0;"/><polygon fill="#181818" points="633.29,440.07,624.2363,443.947,629.8892,443.7353,630.1008,449.3882,633.29,440.07" style="stroke:#181818;stroke-width:1.0;"/></g><!--reverse link ManageDevices to ISpindel--><g id="link_ManageDevices_ISpindel"><path d="M534.1575,746.0707 C570.9775,739.5307 610.04,732.59 637.85,727.65 " fill="none" id="ManageDevices-backto-ISpindel" style="stroke:#181818;stroke-width:1.0;"/><polygon fill="#181818" points="528.25,747.12,537.8108,749.4844,533.1729,746.2456,536.4118,741.6077,528.25,747.12" style="stroke:#181818;stroke-width:1.0;"/></g><!--reverse link CollectRealtimeData to ISpindel--><g id="link_CollectRealtimeData_ISpindel"><path d="M537.9057,694.8378 C573.9957,702.8978 611.02,711.17 637.88,717.17 " fill="none" id="CollectRealtimeData-backto-ISpindel" style="stroke:#181818;stroke-width:1.0;"/><polygon fill="#181818" points="532.05,693.53,539.9618,699.3955,536.9298,694.6198,541.7055,691.5878,532.05,693.53" style="stroke:#181818;stroke-width:1.0;"/></g><!--SRC=[TLJBRi8m4BpdArQvfnzGeKYbEPH39GIgUk5Yd2LO2auKRw68yk-DNs3daPDtPlRXMIir7WYeWKvKHu9ITCX9D3996AUcWxVo9AHGr34TCMK1HouxlA11xSd11IEsPmerKImTkDgsGfPOQz2V7PNUs5vtu7HFJGiNVQc-P68QGfRzvJ7Xce-9H5-1oQf6I3-QjhrgfIdyYE2MGF_zAEHwplIJILOXWCvNHceH4qzADyX5Yw7M8R6wm8EG21T6_QXjrnn4ZIR74jyQNriuJdpliETWoOWVJO85J3mva66YWHmIgvzMxwJBTFt3L0zDTYhmB7WaTyYaUYNFAFijNmFz0vlCs5uLuGcsI2Ha5VQnZ2S6XZLrtUzz9pV8QX8dDC_GMcSfJsWyCSd-QUMZTOSFAX24EvwHXAxFI29tPpIXfJEIsCKPqS0o8msU4hmCvePNM2pmbr2MAi-jFhgxpWWBnFfXUJr8_mj8xc6bn-2U7ZSP4Twpa0bePnSiikpvTp73Z7S_5lq3]--></g></svg>