<?xml version="1.0" encoding="us-ascii" standalone="no"?><svg xmlns="http://www.w3.org/2000/svg" xmlns:xlink="http://www.w3.org/1999/xlink" contentStyleType="text/css" height="278px" preserveAspectRatio="none" style="width:258px;height:278px;background:#FFFFFF;" version="1.1" viewBox="0 0 258 278" width="258px" zoomAndPan="magnify"><defs/><g><!--entity HoppiBrew--><g id="elem_HoppiBrew"><rect fill="#F1F1F1" height="36.2969" rx="2.5" ry="2.5" style="stroke:#181818;stroke-width:0.5;" width="95" x="157" y="105.6793"/><text fill="#000000" font-family="sans-serif" font-size="14" lengthAdjust="spacing" textLength="75" x="167" y="128.6744">HoppiBrew</text></g><!--entity iSpindle--><g id="elem_iSpindle"><path d="M18.8988,14.5053 C21.4638,8.4686 25.434,7.8879 30.2765,11.9358 C33.7724,7.1315 38.934,6 41.9051,12.4768 C43.7201,7.1116 48.2807,6.8863 51.7423,10.7149 C55.301,6.6872 61.0415,6.3574 62.9392,12.537 C66.3776,7.7638 70.7059,6.6152 74.2597,12.4133 C78.7738,6.9399 82.2886,7.4804 85.5842,13.6031 C94.6733,16.2311 98.0441,20.5626 92.9225,29.6779 C98.6203,36.6176 94.3494,43.8911 86.4515,45.1416 C84.3116,50.5815 80.3219,52.1002 75.6207,48.0714 C72.4415,53.6801 68.0858,54.4133 63.5572,49.6392 C62.0309,55.7629 57.976,58.4637 52.2206,54.2992 C47.0438,58.3378 43.3058,56.1066 42.1306,50.2279 C36.7901,54.6594 32.2708,54.2761 29.4358,47.4119 C25.3968,50.994 21.2822,49.7086 19.6123,44.7022 C11.0685,41.0752 10.3125,34.2507 16.4753,27.8812 C10.2885,22.1068 10.7846,17.6886 18.8988,14.5053 " fill="#F1F1F1" style="stroke:#181818;stroke-width:0.5;"/><text fill="#000000" font-family="sans-serif" font-size="14" lengthAdjust="spacing" textLength="54" x="24.5" y="32.6744">iSpindle</text></g><!--entity Administrator--><g id="elem_Administrator"><ellipse cx="51.5" cy="94.1793" fill="#F1F1F1" rx="8" ry="8" style="stroke:#181818;stroke-width:0.5;"/><path d="M51.5,102.1793 L51.5,129.1793 M38.5,110.1793 L64.5,110.1793 M51.5,129.1793 L38.5,144.1793 M51.5,129.1793 L64.5,144.1793 " fill="none" style="stroke:#181818;stroke-width:0.5;"/><text fill="#000000" font-family="sans-serif" font-size="14" lengthAdjust="spacing" textLength="91" x="6" y="158.6744">Administrator</text></g><!--entity Brewer--><g id="elem_Brewer"><ellipse cx="51.5" cy="205.1793" fill="#F1F1F1" rx="8" ry="8" style="stroke:#181818;stroke-width:0.5;"/><path d="M51.5,213.1793 L51.5,240.1793 M38.5,221.1793 L64.5,221.1793 M51.5,240.1793 L38.5,255.1793 M51.5,240.1793 L64.5,255.1793 " fill="none" style="stroke:#181818;stroke-width:0.5;"/><text fill="#000000" font-family="sans-serif" font-size="14" lengthAdjust="spacing" textLength="49" x="27" y="269.6744">Brewer</text></g><!--link iSpindle to HoppiBrew--><g id="link_iSpindle_HoppiBrew"><path d="M89.05,50.9193 C115.41,67.6793 145.4266,86.7604 169.7766,102.2404 " fill="none" id="iSpindle-to-HoppiBrew" style="stroke:#181818;stroke-width:1.0;"/><polygon fill="#181818" points="174.84,105.4593,169.3908,97.2553,170.6205,102.7768,165.0989,104.0065,174.84,105.4593" style="stroke:#181818;stroke-width:1.0;"/></g><!--link Administrator to HoppiBrew--><g id="link_Administrator_HoppiBrew"><path d="M97.4,123.6793 C116.17,123.6793 131.99,123.6793 150.94,123.6793 " fill="none" id="Administrator-to-HoppiBrew" style="stroke:#181818;stroke-width:1.0;"/><polygon fill="#181818" points="156.94,123.6793,147.94,119.6793,151.94,123.6793,147.94,127.6793,156.94,123.6793" style="stroke:#181818;stroke-width:1.0;"/></g><!--link Brewer to HoppiBrew--><g id="link_Brewer_HoppiBrew"><path d="M76.09,217.3393 C104.05,196.7893 145.5655,166.2629 173.9855,145.3729 " fill="none" id="Brewer-to-HoppiBrew" style="stroke:#181818;stroke-width:1.0;"/><polygon fill="#181818" points="178.82,141.8193,169.1992,143.9267,174.7913,144.7806,173.9373,150.3726,178.82,141.8193" style="stroke:#181818;stroke-width:1.0;"/></g><!--SRC=[NOnB2W8n40NtVOh7x7C5mLcvdnE4f1qRCkdGjhWGx-u4Fs2MhufNXSyELvYi5qSMu-IYbIWLlMN8qgJcmXIJg-6ODwboTOlx-h3P-Cv6_HZhMXZJILkJZYSyw4dqZI240twI_cA3UqS7-080]--></g></svg>