<?xml version="1.0" encoding="us-ascii" standalone="no"?><svg xmlns="http://www.w3.org/2000/svg" xmlns:xlink="http://www.w3.org/1999/xlink" contentStyleType="text/css" height="452px" preserveAspectRatio="none" style="width:649px;height:452px;background:#FFFFFF;" version="1.1" viewBox="0 0 649 452" width="649px" zoomAndPan="magnify"><defs/><g><text fill="#000000" font-family="sans-serif" font-size="14" font-weight="bold" lengthAdjust="spacing" textLength="211" x="218" y="27.9951">Technical Context Diagram</text><line style="stroke:#181818;stroke-width:0.5;stroke-dasharray:5.0,5.0;" x1="38" x2="38" y1="118.5938" y2="371.6563"/><line style="stroke:#181818;stroke-width:0.5;stroke-dasharray:5.0,5.0;" x1="160" x2="160" y1="118.5938" y2="371.6563"/><line style="stroke:#181818;stroke-width:0.5;stroke-dasharray:5.0,5.0;" x1="282" x2="282" y1="118.5938" y2="371.6563"/><line style="stroke:#181818;stroke-width:0.5;stroke-dasharray:5.0,5.0;" x1="406" x2="406" y1="118.5938" y2="371.6563"/><line style="stroke:#181818;stroke-width:0.5;stroke-dasharray:5.0,5.0;" x1="496" x2="496" y1="118.5938" y2="371.6563"/><line style="stroke:#181818;stroke-width:0.5;stroke-dasharray:5.0,5.0;" x1="589" x2="589" y1="118.5938" y2="371.6563"/><text fill="#000000" font-family="sans-serif" font-size="14" lengthAdjust="spacing" textLength="61" x="5" y="115.292">Operator</text><ellipse cx="38.5" cy="50.7969" fill="#E2E2F0" rx="8" ry="8" style="stroke:#181818;stroke-width:0.5;"/><path d="M38.5,58.7969 L38.5,85.7969 M25.5,66.7969 L51.5,66.7969 M38.5,85.7969 L25.5,100.7969 M38.5,85.7969 L51.5,100.7969 " fill="none" style="stroke:#181818;stroke-width:0.5;"/><text fill="#000000" font-family="sans-serif" font-size="14" lengthAdjust="spacing" textLength="61" x="5" y="383.6514">Operator</text><ellipse cx="38.5" cy="395.4531" fill="#E2E2F0" rx="8" ry="8" style="stroke:#181818;stroke-width:0.5;"/><path d="M38.5,403.4531 L38.5,430.4531 M25.5,411.4531 L51.5,411.4531 M38.5,430.4531 L25.5,445.4531 M38.5,430.4531 L51.5,445.4531 " fill="none" style="stroke:#181818;stroke-width:0.5;"/><text fill="#000000" font-family="sans-serif" font-size="14" lengthAdjust="spacing" textLength="79" x="118" y="115.292">Web Server</text><path d="M140,74.2969 L140,98.2969 M140,86.2969 L157,86.2969 " fill="none" style="stroke:#181818;stroke-width:0.5;"/><ellipse cx="169" cy="86.2969" fill="#E2E2F0" rx="12" ry="12" style="stroke:#181818;stroke-width:0.5;"/><text fill="#000000" font-family="sans-serif" font-size="14" lengthAdjust="spacing" textLength="79" x="118" y="383.6514">Web Server</text><path d="M140,390.9531 L140,414.9531 M140,402.9531 L157,402.9531 " fill="none" style="stroke:#181818;stroke-width:0.5;"/><ellipse cx="169" cy="402.9531" fill="#E2E2F0" rx="12" ry="12" style="stroke:#181818;stroke-width:0.5;"/><text fill="#000000" font-family="sans-serif" font-size="14" lengthAdjust="spacing" textLength="123" x="218" y="115.292">Application Server</text><ellipse cx="282.5" cy="86.2969" fill="#E2E2F0" rx="12" ry="12" style="stroke:#181818;stroke-width:0.5;"/><polygon fill="#181818" points="278.5,74.2969,284.5,69.2969,282.5,74.2969,284.5,79.2969,278.5,74.2969" style="stroke:#181818;stroke-width:1.0;"/><text fill="#000000" font-family="sans-serif" font-size="14" lengthAdjust="spacing" textLength="123" x="218" y="383.6514">Application Server</text><ellipse cx="282.5" cy="402.9531" fill="#E2E2F0" rx="12" ry="12" style="stroke:#181818;stroke-width:0.5;"/><polygon fill="#181818" points="278.5,390.9531,284.5,385.9531,282.5,390.9531,284.5,395.9531,278.5,390.9531" style="stroke:#181818;stroke-width:1.0;"/><text fill="#000000" font-family="sans-serif" font-size="14" lengthAdjust="spacing" textLength="93" x="357" y="115.292">SQLDatabase</text><ellipse cx="406.5" cy="86.2969" fill="#E2E2F0" rx="12" ry="12" style="stroke:#181818;stroke-width:0.5;"/><line style="stroke:#181818;stroke-width:0.5;" x1="394.5" x2="418.5" y1="100.2969" y2="100.2969"/><text fill="#000000" font-family="sans-serif" font-size="14" lengthAdjust="spacing" textLength="93" x="357" y="383.6514">SQLDatabase</text><ellipse cx="406.5" cy="402.9531" fill="#E2E2F0" rx="12" ry="12" style="stroke:#181818;stroke-width:0.5;"/><line style="stroke:#181818;stroke-width:0.5;" x1="394.5" x2="418.5" y1="416.9531" y2="416.9531"/><text fill="#000000" font-family="sans-serif" font-size="14" lengthAdjust="spacing" textLength="54" x="466" y="115.292">iSpindel</text><ellipse cx="496" cy="86.2969" fill="#E2E2F0" rx="12" ry="12" style="stroke:#181818;stroke-width:0.5;"/><line style="stroke:#181818;stroke-width:0.5;" x1="484" x2="508" y1="100.2969" y2="100.2969"/><text fill="#000000" font-family="sans-serif" font-size="14" lengthAdjust="spacing" textLength="54" x="466" y="383.6514">iSpindel</text><ellipse cx="496" cy="402.9531" fill="#E2E2F0" rx="12" ry="12" style="stroke:#181818;stroke-width:0.5;"/><line style="stroke:#181818;stroke-width:0.5;" x1="484" x2="508" y1="416.9531" y2="416.9531"/><rect fill="#E2E2F0" height="30.2969" rx="2.5" ry="2.5" style="stroke:#181818;stroke-width:0.5;" width="107" x="536" y="87.2969"/><text fill="#000000" font-family="sans-serif" font-size="14" lengthAdjust="spacing" textLength="93" x="543" y="107.292">SQLDatabase</text><rect fill="#E2E2F0" height="30.2969" rx="2.5" ry="2.5" style="stroke:#181818;stroke-width:0.5;" width="107" x="536" y="370.6563"/><text fill="#000000" font-family="sans-serif" font-size="14" lengthAdjust="spacing" textLength="93" x="543" y="390.6514">SQLDatabase</text><polygon fill="#181818" points="148.5,145.7266,158.5,149.7266,148.5,153.7266,152.5,149.7266" style="stroke:#181818;stroke-width:1.0;"/><line style="stroke:#181818;stroke-width:1.0;" x1="38.5" x2="154.5" y1="149.7266" y2="149.7266"/><text fill="#000000" font-family="sans-serif" font-size="13" lengthAdjust="spacing" textLength="88" x="45.5" y="144.6606">HTTP Request</text><polygon fill="#181818" points="270.5,174.8594,280.5,178.8594,270.5,182.8594,274.5,178.8594" style="stroke:#181818;stroke-width:1.0;"/><line style="stroke:#181818;stroke-width:1.0;" x1="160.5" x2="276.5" y1="178.8594" y2="178.8594"/><text fill="#000000" font-family="sans-serif" font-size="13" lengthAdjust="spacing" textLength="88" x="167.5" y="173.7935">HTTP Request</text><polygon fill="#181818" points="394.5,203.9922,404.5,207.9922,394.5,211.9922,398.5,207.9922" style="stroke:#181818;stroke-width:1.0;"/><line style="stroke:#181818;stroke-width:1.0;" x1="282.5" x2="400.5" y1="207.9922" y2="207.9922"/><text fill="#000000" font-family="sans-serif" font-size="13" lengthAdjust="spacing" textLength="68" x="289.5" y="202.9263">SQL Query</text><polygon fill="#181818" points="293.5,233.125,283.5,237.125,293.5,241.125,289.5,237.125" style="stroke:#181818;stroke-width:1.0;"/><line style="stroke:#181818;stroke-width:1.0;" x1="287.5" x2="588.5" y1="237.125" y2="237.125"/><text fill="#000000" font-family="sans-serif" font-size="13" lengthAdjust="spacing" textLength="92" x="299.5" y="232.0591">SQL Response</text><polygon fill="#181818" points="171.5,262.2578,161.5,266.2578,171.5,270.2578,167.5,266.2578" style="stroke:#181818;stroke-width:1.0;"/><line style="stroke:#181818;stroke-width:1.0;" x1="165.5" x2="281.5" y1="266.2578" y2="266.2578"/><text fill="#000000" font-family="sans-serif" font-size="13" lengthAdjust="spacing" textLength="98" x="177.5" y="261.1919">HTTP Response</text><polygon fill="#181818" points="49.5,291.3906,39.5,295.3906,49.5,299.3906,45.5,295.3906" style="stroke:#181818;stroke-width:1.0;"/><line style="stroke:#181818;stroke-width:1.0;" x1="43.5" x2="159.5" y1="295.3906" y2="295.3906"/><text fill="#000000" font-family="sans-serif" font-size="13" lengthAdjust="spacing" textLength="98" x="55.5" y="290.3247">HTTP Response</text><polygon fill="#181818" points="293.5,320.5234,283.5,324.5234,293.5,328.5234,289.5,324.5234" style="stroke:#181818;stroke-width:1.0;"/><line style="stroke:#181818;stroke-width:1.0;" x1="287.5" x2="495" y1="324.5234" y2="324.5234"/><text fill="#000000" font-family="sans-serif" font-size="13" lengthAdjust="spacing" textLength="88" x="299.5" y="319.4575">HTTP Request</text><polygon fill="#181818" points="484,349.6563,494,353.6563,484,357.6563,488,353.6563" style="stroke:#181818;stroke-width:1.0;"/><line style="stroke:#181818;stroke-width:1.0;" x1="282.5" x2="490" y1="353.6563" y2="353.6563"/><text fill="#000000" font-family="sans-serif" font-size="13" lengthAdjust="spacing" textLength="98" x="289.5" y="348.5903">HTTP Response</text><!--SRC=[ZO-x3i8m34LtVuNLdHzWG48mW8J4evMOtM91f924n4NqxmcbfALYOBpnySsnAD6C1LSNeohIkB16-26uL7JsT0MWIgp7Eh172fXj7NkABncKjZOdyWqUkSpPtpiW9dp73AfOvgt6kNC38YOT_n9bJIBPY986boHKKk2Mo_URJqx0EdVAd5YtWEf21W2ju6Gsa9dYgYXsUE1RpK6W7qIg5nfH_I1IoMQAqGNtDVi61bRZfXTquE2i2VpTzCEgmxwqsYF61AIR_nPF6-Ek9m00]--></g></svg>