<?xml version="1.0" encoding="us-ascii" standalone="no"?><svg xmlns="http://www.w3.org/2000/svg" xmlns:xlink="http://www.w3.org/1999/xlink" contentStyleType="text/css" height="1132px" preserveAspectRatio="none" style="width:670px;height:1132px;background:#FFFFFF;" version="1.1" viewBox="0 0 670 1132" width="670px" zoomAndPan="magnify"><defs/><g><text fill="#000000" font-family="sans-serif" font-size="14" font-weight="bold" lengthAdjust="spacing" textLength="202" x="227" y="22.9951">White Box Overall System</text><!--cluster Internet--><g id="cluster_Internet"><path d="M219.0868,162.3187 C222.155,156.2173 227.8386,156.505 231.3145,161.8846 C233.6905,154.747 239.5649,155.2183 243.5756,160.2355 C248.1487,154.4667 253.3813,153.3404 257.9152,160.2797 C259.9363,153.5475 265.6315,153.176 269.4695,158.5449 C273.5572,152.5006 279.745,153.491 282.5493,159.8936 C285.7437,154.6423 291.5764,154.5761 294.5261,160.1639 C298.7057,154.6921 303.3444,153.6623 307.8418,159.7995 C312.0969,154.5975 316.0308,154.9914 318.8007,161.2231 C323.1578,154.6913 329.4156,154.6479 333.5075,161.5143 C338.554,156.1495 342.3952,155.9848 345.771,163.1495 C352.0345,166.9894 351.7805,173.0364 345.0046,176.1049 C350.5082,180.0245 350.9825,184.8184 345.4867,189.1447 C351.241,192.3741 351.5417,198.5706 345.6763,201.9719 C353.5816,206.1069 352.4112,212.9937 346.0609,217.4822 C350.7085,222.0382 351.2709,225.7254 345.0799,229.3884 C351.595,233.5533 351.3407,238.2317 346.1298,243.2827 C341.9552,249.6811 336.4847,250.3774 331.9136,243.7141 C328.3974,249.6806 324.2288,249.486 320.256,244.1865 C316.7991,250.7221 311.4352,251.3316 306.924,245.3055 C303.1517,250.7119 298.6121,251.3137 294.754,245.3978 C290.396,251.6905 284.2831,249.8747 281.2406,243.9435 C278.264,249.9054 274.4708,250.9696 270.0578,245.3279 C266.5706,251.5439 261.0966,251.5437 257.8532,245.093 C252.8722,251.2679 246.8487,251.525 243.5206,243.4325 C240.5842,249.8963 234.5725,250.135 230.672,244.4524 C226.2322,249.8558 222.0927,249.1785 218.2152,243.8027 C212.0688,238.8665 212.9224,232.6456 219.6874,228.993 C214.2033,225.6688 212.3953,222.1745 218.0846,217.3166 C210.9286,212.9984 210.4688,206.7239 217.9184,202.2447 C211.6799,198.8561 212.4906,193.7771 217.7626,190.2392 C211.6749,186.225 210.9613,180.0736 217.7166,176.0179 C212.5028,171.8927 211.4062,165.1542 219.0868,162.3187 " fill="none" style="stroke:#181818;stroke-width:1.0;"/><text fill="#000000" font-family="sans-serif" font-size="14" font-weight="bold" lengthAdjust="spacing" textLength="63" x="249.5" y="179.292">Internet</text></g><!--cluster Unraid Server--><g id="cluster_Unraid Server"><rect fill="none" height="827" rx="2.5" ry="2.5" style="stroke:#181818;stroke-width:1.0;" width="657" x="7" y="299.2969"/><text fill="#000000" font-family="sans-serif" font-size="14" font-weight="bold" lengthAdjust="spacing" textLength="109" x="281" y="314.292">Unraid Server</text></g><!--cluster Docker Engine--><g id="cluster_Docker Engine"><polygon fill="none" points="31,352.2969,41,342.2969,640,342.2969,640,1092.2969,630,1102.2969,31,1102.2969,31,352.2969" style="stroke:#181818;stroke-width:1.0;"/><line style="stroke:#181818;stroke-width:1.0;" x1="630" x2="640" y1="352.2969" y2="342.2969"/><line style="stroke:#181818;stroke-width:1.0;" x1="31" x2="630" y1="352.2969" y2="352.2969"/><line style="stroke:#181818;stroke-width:1.0;" x1="630" x2="630" y1="352.2969" y2="1102.2969"/><text fill="#000000" font-family="sans-serif" font-size="14" font-weight="bold" lengthAdjust="spacing" textLength="114" x="274.5" y="368.292">Docker Engine</text></g><!--cluster Application_Container--><g id="cluster_Application_Container"><polygon fill="none" points="55,598.2969,65,588.2969,616,588.2969,616,820.2969,606,830.2969,55,830.2969,55,598.2969" style="stroke:#181818;stroke-width:1.0;"/><line style="stroke:#181818;stroke-width:1.0;" x1="606" x2="616" y1="598.2969" y2="588.2969"/><line style="stroke:#181818;stroke-width:1.0;" x1="55" x2="606" y1="598.2969" y2="598.2969"/><line style="stroke:#181818;stroke-width:1.0;" x1="606" x2="606" y1="598.2969" y2="830.2969"/><text fill="#000000" font-family="sans-serif" font-size="14" font-weight="bold" lengthAdjust="spacing" textLength="113" x="275" y="614.292">App Container</text></g><!--cluster PostgreSQL Container--><g id="cluster_PostgreSQL Container"><polygon fill="none" points="365,986.2969,375,976.2969,616,976.2969,616,1068.2969,606,1078.2969,365,1078.2969,365,986.2969" style="stroke:#181818;stroke-width:1.0;"/><line style="stroke:#181818;stroke-width:1.0;" x1="606" x2="616" y1="986.2969" y2="976.2969"/><line style="stroke:#181818;stroke-width:1.0;" x1="365" x2="606" y1="986.2969" y2="986.2969"/><line style="stroke:#181818;stroke-width:1.0;" x1="606" x2="606" y1="986.2969" y2="1078.2969"/><text fill="#000000" font-family="sans-serif" font-size="14" font-weight="bold" lengthAdjust="spacing" textLength="175" x="399" y="1002.292">PostgreSQL Container</text></g><!--entity cloudflare--><g id="elem_cloudflare"><rect fill="#F1F1F1" height="46.2969" rx="2.5" ry="2.5" style="stroke:#181818;stroke-width:0.5;" width="109" x="226.5" y="188.2969"/><rect fill="#F1F1F1" height="10" style="stroke:#181818;stroke-width:0.5;" width="15" x="315.5" y="193.2969"/><rect fill="#F1F1F1" height="2" style="stroke:#181818;stroke-width:0.5;" width="4" x="313.5" y="195.2969"/><rect fill="#F1F1F1" height="2" style="stroke:#181818;stroke-width:0.5;" width="4" x="313.5" y="199.2969"/><text fill="#000000" font-family="sans-serif" font-size="14" lengthAdjust="spacing" textLength="69" x="241.5" y="221.292">Cloudflare</text></g><!--entity CloudflareTunnel--><g id="elem_CloudflareTunnel"><rect fill="#F1F1F1" height="46.2969" rx="2.5" ry="2.5" style="stroke:#181818;stroke-width:0.5;" width="109" x="226.5" y="382.2969"/><rect fill="#F1F1F1" height="10" style="stroke:#181818;stroke-width:0.5;" width="15" x="315.5" y="387.2969"/><rect fill="#F1F1F1" height="2" style="stroke:#181818;stroke-width:0.5;" width="4" x="313.5" y="389.2969"/><rect fill="#F1F1F1" height="2" style="stroke:#181818;stroke-width:0.5;" width="4" x="313.5" y="393.2969"/><text fill="#000000" font-family="sans-serif" font-size="14" lengthAdjust="spacing" textLength="69" x="241.5" y="415.292">Cloudflare</text></g><!--entity I03--><g id="elem_I03"><ellipse cx="281" cy="523.2969" fill="#F1F1F1" rx="8" ry="8" style="stroke:#181818;stroke-width:0.5;"/></g><!--entity I04--><g id="elem_I04"><ellipse cx="540" cy="911.2969" fill="#F1F1F1" rx="8" ry="8" style="stroke:#181818;stroke-width:0.5;"/></g><!--entity HoppyBrew--><g id="elem_HoppyBrew"><rect fill="#F1F1F1" height="46.2969" rx="2.5" ry="2.5" style="stroke:#181818;stroke-width:0.5;" width="119" x="405.5" y="628.2969"/><rect fill="#F1F1F1" height="10" style="stroke:#181818;stroke-width:0.5;" width="15" x="504.5" y="633.2969"/><rect fill="#F1F1F1" height="2" style="stroke:#181818;stroke-width:0.5;" width="4" x="502.5" y="635.2969"/><rect fill="#F1F1F1" height="2" style="stroke:#181818;stroke-width:0.5;" width="4" x="502.5" y="639.2969"/><text fill="#000000" font-family="sans-serif" font-size="14" lengthAdjust="spacing" textLength="79" x="420.5" y="661.292">HoppyBrew</text></g><!--entity db_adapter--><g id="elem_db_adapter"><rect fill="#F1F1F1" height="62.5938" rx="2.5" ry="2.5" style="stroke:#181818;stroke-width:0.5;" width="116" x="484" y="751.2969"/><rect fill="#F1F1F1" height="10" style="stroke:#181818;stroke-width:0.5;" width="15" x="580" y="756.2969"/><rect fill="#F1F1F1" height="2" style="stroke:#181818;stroke-width:0.5;" width="4" x="578" y="758.2969"/><rect fill="#F1F1F1" height="2" style="stroke:#181818;stroke-width:0.5;" width="4" x="578" y="762.2969"/><text fill="#000000" font-family="sans-serif" font-size="14" lengthAdjust="spacing" textLength="59" x="499" y="784.292">Psycopg</text><text fill="#000000" font-family="sans-serif" font-size="14" lengthAdjust="spacing" textLength="76" x="499" y="800.5889">db-adapter</text></g><!--entity api--><g id="elem_api"><rect fill="#F1F1F1" height="46.2969" rx="2.5" ry="2.5" style="stroke:#181818;stroke-width:0.5;" width="90" x="236" y="628.2969"/><rect fill="#F1F1F1" height="10" style="stroke:#181818;stroke-width:0.5;" width="15" x="306" y="633.2969"/><rect fill="#F1F1F1" height="2" style="stroke:#181818;stroke-width:0.5;" width="4" x="304" y="635.2969"/><rect fill="#F1F1F1" height="2" style="stroke:#181818;stroke-width:0.5;" width="4" x="304" y="639.2969"/><text fill="#000000" font-family="sans-serif" font-size="14" lengthAdjust="spacing" textLength="50" x="251" y="661.292">FastAPI</text></g><!--entity uvicorn--><g id="elem_uvicorn"><rect fill="#F1F1F1" height="46.2969" rx="2.5" ry="2.5" style="stroke:#181818;stroke-width:0.5;" width="90" x="71" y="759.7969"/><rect fill="#F1F1F1" height="10" style="stroke:#181818;stroke-width:0.5;" width="15" x="141" y="764.7969"/><rect fill="#F1F1F1" height="2" style="stroke:#181818;stroke-width:0.5;" width="4" x="139" y="766.7969"/><rect fill="#F1F1F1" height="2" style="stroke:#181818;stroke-width:0.5;" width="4" x="139" y="770.7969"/><text fill="#000000" font-family="sans-serif" font-size="14" lengthAdjust="spacing" textLength="50" x="86" y="792.792">uvicorn</text></g><!--entity endpoints--><g id="elem_endpoints"><rect fill="#F1F1F1" height="46.2969" rx="2.5" ry="2.5" style="stroke:#181818;stroke-width:0.5;" width="110" x="196" y="759.7969"/><rect fill="#F1F1F1" height="10" style="stroke:#181818;stroke-width:0.5;" width="15" x="286" y="764.7969"/><rect fill="#F1F1F1" height="2" style="stroke:#181818;stroke-width:0.5;" width="4" x="284" y="766.7969"/><rect fill="#F1F1F1" height="2" style="stroke:#181818;stroke-width:0.5;" width="4" x="284" y="770.7969"/><text fill="#000000" font-family="sans-serif" font-size="14" lengthAdjust="spacing" textLength="70" x="211" y="792.792">endpoints</text></g><!--entity APIRouter--><g id="elem_APIRouter"><rect fill="#F1F1F1" height="46.2969" rx="2.5" ry="2.5" style="stroke:#181818;stroke-width:0.5;" width="108" x="341" y="759.7969"/><rect fill="#F1F1F1" height="10" style="stroke:#181818;stroke-width:0.5;" width="15" x="429" y="764.7969"/><rect fill="#F1F1F1" height="2" style="stroke:#181818;stroke-width:0.5;" width="4" x="427" y="766.7969"/><rect fill="#F1F1F1" height="2" style="stroke:#181818;stroke-width:0.5;" width="4" x="427" y="770.7969"/><text fill="#000000" font-family="sans-serif" font-size="14" lengthAdjust="spacing" textLength="68" x="356" y="792.792">APIRouter</text></g><!--entity db--><g id="elem_db"><rect fill="#F1F1F1" height="46.2969" rx="2.5" ry="2.5" style="stroke:#181818;stroke-width:0.5;" width="121" x="478.5" y="1016.2969"/><rect fill="#F1F1F1" height="10" style="stroke:#181818;stroke-width:0.5;" width="15" x="579.5" y="1021.2969"/><rect fill="#F1F1F1" height="2" style="stroke:#181818;stroke-width:0.5;" width="4" x="577.5" y="1023.2969"/><rect fill="#F1F1F1" height="2" style="stroke:#181818;stroke-width:0.5;" width="4" x="577.5" y="1027.2969"/><text fill="#000000" font-family="sans-serif" font-size="14" lengthAdjust="spacing" textLength="81" x="493.5" y="1049.292">PostgreSQL</text></g><!--entity I01--><g id="elem_I01"><ellipse cx="182" cy="211.2969" fill="#F1F1F1" rx="8" ry="8" style="stroke:#181818;stroke-width:0.5;"/></g><!--entity I02--><g id="elem_I02"><ellipse cx="380" cy="211.2969" fill="#F1F1F1" rx="8" ry="8" style="stroke:#181818;stroke-width:0.5;"/></g><!--entity ClientBrowser--><g id="elem_ClientBrowser"><rect fill="#F1F1F1" height="46.2969" rx="2.5" ry="2.5" style="stroke:#181818;stroke-width:0.5;" width="140" x="112" y="44.2969"/><rect fill="#F1F1F1" height="10" style="stroke:#181818;stroke-width:0.5;" width="15" x="232" y="49.2969"/><rect fill="#F1F1F1" height="2" style="stroke:#181818;stroke-width:0.5;" width="4" x="230" y="51.2969"/><rect fill="#F1F1F1" height="2" style="stroke:#181818;stroke-width:0.5;" width="4" x="230" y="55.2969"/><text fill="#000000" font-family="sans-serif" font-size="14" lengthAdjust="spacing" textLength="100" x="127" y="77.292">Client Browser</text></g><!--entity ISpindel--><g id="elem_ISpindel"><rect fill="#F1F1F1" height="46.2969" rx="2.5" ry="2.5" style="stroke:#181818;stroke-width:0.5;" width="94" x="333" y="44.2969"/><rect fill="#F1F1F1" height="10" style="stroke:#181818;stroke-width:0.5;" width="15" x="407" y="49.2969"/><rect fill="#F1F1F1" height="2" style="stroke:#181818;stroke-width:0.5;" width="4" x="405" y="51.2969"/><rect fill="#F1F1F1" height="2" style="stroke:#181818;stroke-width:0.5;" width="4" x="405" y="55.2969"/><text fill="#000000" font-family="sans-serif" font-size="14" lengthAdjust="spacing" textLength="54" x="348" y="77.292">ISpindel</text></g><!--link ClientBrowser to I01--><g id="link_ClientBrowser_I01"><path d="M182,90.4869 C182,122.6169 182,170.6169 182,192.0469 " fill="none" id="ClientBrowser-to-I01" style="stroke:#181818;stroke-width:1.0;"/><path d="M190.4572,198.9687 A9,9 0 0 0 173.5428 198.9687" fill="none" style="stroke:#181818;stroke-width:1.5;"/><text fill="#000000" font-family="sans-serif" font-size="13" lengthAdjust="spacing" textLength="32" x="183" y="133.3638">Uses</text></g><!--link I01 to cloudflare--><g id="link_I01_cloudflare"><path d="M191.28,211.2969 C202.96,211.2969 214.65,211.2969 226.33,211.2969 " fill="none" id="I01-cloudflare" style="stroke:#181818;stroke-width:1.0;"/></g><!--link ISpindel to I02--><g id="link_ISpindel_I02"><path d="M380,90.4869 C380,122.6169 380,170.6169 380,192.0469 " fill="none" id="ISpindel-to-I02" style="stroke:#181818;stroke-width:1.0;"/><path d="M388.4572,198.9687 A9,9 0 0 0 371.5428 198.9687" fill="none" style="stroke:#181818;stroke-width:1.5;"/><text fill="#000000" font-family="sans-serif" font-size="13" lengthAdjust="spacing" textLength="98" x="381" y="133.3638">Transmits Data</text></g><!--link I02 to cloudflare--><g id="link_I02_cloudflare"><path d="M370.97,211.2969 C359.15,211.2969 347.34,211.2969 335.53,211.2969 " fill="none" id="I02-cloudflare" style="stroke:#181818;stroke-width:1.0;"/></g><!--link cloudflare to CloudflareTunnel--><g id="link_cloudflare_CloudflareTunnel"><path d="M281,252.3169 C281,289.2569 281,327.2669 281,364.2369 " fill="none" id="cloudflare-CloudflareTunnel" style="stroke:#181818;stroke-width:1.0;stroke-dasharray:7.0,7.0;"/><polygon fill="none" points="281,234.3169,275,252.3169,287,252.3169,281,234.3169" style="stroke:#181818;stroke-width:1.0;"/><polygon fill="none" points="281,382.2369,287,364.2369,275,364.2369,281,382.2369" style="stroke:#181818;stroke-width:1.0;"/><text fill="#000000" font-family="sans-serif" font-size="13" lengthAdjust="spacing" textLength="68" x="282" y="279.3638">&#171;TUNNEL&#187;</text></g><!--link api to HoppyBrew--><g id="link_api_HoppyBrew"><path d="M326.01,651.2969 C349.84,651.2969 379.43,651.2969 405.17,651.2969 " fill="none" id="api-HoppyBrew" style="stroke:#181818;stroke-width:1.0;"/><text fill="#000000" font-family="sans-serif" font-size="13" lengthAdjust="spacing" textLength="32" x="349.75" y="644.3638">Uses</text></g><!--link HoppyBrew to db_adapter--><g id="link_HoppyBrew_db_adapter"><path d="M478.24,674.5569 C490.79,695.6769 509.77,727.5869 523.75,751.1069 " fill="none" id="HoppyBrew-db_adapter" style="stroke:#181818;stroke-width:1.0;"/><text fill="#000000" font-family="sans-serif" font-size="13" lengthAdjust="spacing" textLength="32" x="506" y="717.3638">Uses</text></g><!--link api to uvicorn--><g id="link_api_uvicorn"><path d="M252.64,674.5569 C222.32,698.3469 174.55,735.8469 144.27,759.6069 " fill="none" id="api-uvicorn" style="stroke:#181818;stroke-width:1.0;"/><text fill="#000000" font-family="sans-serif" font-size="13" lengthAdjust="spacing" textLength="31" x="214" y="717.3638">Runs</text></g><!--link api to endpoints--><g id="link_api_endpoints"><path d="M275.84,674.5569 C270.35,698.2769 261.7,735.6169 256.19,759.3969 " fill="none" id="api-endpoints" style="stroke:#181818;stroke-width:1.0;"/><text fill="#000000" font-family="sans-serif" font-size="13" lengthAdjust="spacing" textLength="32" x="269" y="717.3638">Uses</text></g><!--link api to APIRouter--><g id="link_api_APIRouter"><path d="M300.6,674.5569 C321.48,698.2769 354.35,735.6169 375.28,759.3969 " fill="none" id="api-APIRouter" style="stroke:#181818;stroke-width:1.0;"/><text fill="#000000" font-family="sans-serif" font-size="13" lengthAdjust="spacing" textLength="32" x="342" y="717.3638">Uses</text></g><!--link CloudflareTunnel to I03--><g id="link_CloudflareTunnel_I03"><path d="M281,428.3869 C281,454.5469 281,486.7869 281,504.2969 " fill="none" id="CloudflareTunnel-to-I03" style="stroke:#181818;stroke-width:1.0;"/><path d="M289.4572,511.2187 A9,9 0 0 0 272.5428 511.2187" fill="none" style="stroke:#181818;stroke-width:1.5;"/><text fill="#000000" font-family="sans-serif" font-size="13" lengthAdjust="spacing" textLength="32" x="282" y="471.3638">Uses</text></g><!--link I03 to api--><g id="link_I03_api"><path d="M281,532.5669 C281,551.7269 281,599.7069 281,628.1469 " fill="none" id="I03-api" style="stroke:#181818;stroke-width:1.0;"/></g><!--link db_adapter to I04--><g id="link_db_adapter_I04"><path d="M541.52,814.4169 C541.06,843.3769 540.5559,874.8981 540.2859,892.2181 " fill="none" id="db_adapter-to-I04" style="stroke:#181818;stroke-width:1.0;"/><path d="M548.6342,899.2709 A9,9 0 0 0 531.7218 899.0072" fill="none" style="stroke:#181818;stroke-width:1.5;"/><text fill="#000000" font-family="sans-serif" font-size="13" lengthAdjust="spacing" textLength="32" x="542" y="859.3638">Uses</text></g><!--link I04 to db--><g id="link_I04_db"><path d="M539.93,920.5669 C539.78,939.7269 539.4,987.7069 539.18,1016.1469 " fill="none" id="I04-db" style="stroke:#181818;stroke-width:1.0;"/></g><!--SRC=[ZPDDRzim38Rl-XL4JhkuMDkSXY10qtPOWABDcWIx32XKcys4EfGWoUc2DVzzj6NBpeUBEeUOv4FofKHxvNE4Nt-KHvZel_2mGIlp7EPRvt4jX2AFzaMc20F-IGVJh-Udd1T2f7fjD25v65pdgloVMFtcq5P8SDMUBZkT6qKPvg5GRN2rN1SPHyjMX7u0_mJmizU4YPTSMgnIqsYAdH1xxI19lfJ2uHii7JfHlYQT112YQLoZ5umkh2ItLjx1ZVHIbCw397uifbxIYizmi2GhLGPpj9jovg2NTCQX6vs-ienRMYd29lJnEAsvA8ZA4uavhOJH-zdP-_Y8PV6ZqM9vVtzxDnwtYK7BbJ5mhSbBbXAkXZsvIgLNcfvYf2FoGEWFRSnsOl6jIevM7pvpsrIRrM_AdXEPIUFhhjdpKstsPNwNpb_DfXKjZUh3YerAjQKAgz_xKAJCQDvULy7HwiEv-QCk6i7H4diyA-EzYCVGx5WNQOD9qfdx55fLIvevW977WauYKJryK2TgFe9sxHGdFkVB63pQhV21N1xMArtSiBodmusRQUTN5kS_xxgBrxjVBLxloISr3sEmSyH1xV1OxJ3SXGXrT_y1]--></g></svg>