<?xml version="1.0" encoding="us-ascii" standalone="no"?><svg xmlns="http://www.w3.org/2000/svg" xmlns:xlink="http://www.w3.org/1999/xlink" contentStyleType="text/css" height="473px" preserveAspectRatio="none" style="width:335px;height:473px;background:#FFFFFF;" version="1.1" viewBox="0 0 335 473" width="335px" zoomAndPan="magnify"><defs/><g><!--cluster Client Browser--><g id="cluster_Client Browser"><rect fill="none" height="97" rx="2.5" ry="2.5" style="stroke:#181818;stroke-width:1.0;" width="172" x="7" y="7"/><text fill="#000000" font-family="sans-serif" font-size="14" font-weight="bold" lengthAdjust="spacing" textLength="117" x="34.5" y="21.9951">Client Browser</text></g><!--cluster ISpindel--><g id="cluster_ISpindel"><rect fill="none" height="97" rx="2.5" ry="2.5" style="stroke:#181818;stroke-width:1.0;" width="126" x="203" y="7"/><text fill="#000000" font-family="sans-serif" font-size="14" font-weight="bold" lengthAdjust="spacing" textLength="62" x="235" y="21.9951">ISpindel</text></g><!--cluster Cloudflare--><g id="cluster_Cloudflare"><rect fill="none" height="97" rx="2.5" ry="2.5" style="stroke:#181818;stroke-width:1.0;" width="142" x="101" y="128"/><text fill="#000000" font-family="sans-serif" font-size="14" font-weight="bold" lengthAdjust="spacing" textLength="81" x="131.5" y="142.9951">Cloudflare</text></g><!--cluster HoppyBrew--><g id="cluster_HoppyBrew"><rect fill="none" height="97" rx="2.5" ry="2.5" style="stroke:#181818;stroke-width:1.0;" width="152" x="96" y="249"/><text fill="#000000" font-family="sans-serif" font-size="14" font-weight="bold" lengthAdjust="spacing" textLength="91" x="126.5" y="263.9951">HoppyBrew</text></g><!--cluster PostgreSQL--><g id="cluster_PostgreSQL"><rect fill="none" height="97" rx="2.5" ry="2.5" style="stroke:#181818;stroke-width:1.0;" width="154" x="95" y="370"/><text fill="#000000" font-family="sans-serif" font-size="14" font-weight="bold" lengthAdjust="spacing" textLength="93" x="125.5" y="384.9951">PostgreSQL</text></g><!--entity client_browser--><g id="elem_client_browser"><rect fill="#F1F1F1" height="46.2969" rx="2.5" ry="2.5" style="stroke:#181818;stroke-width:0.5;" width="140" x="23" y="42"/><rect fill="#F1F1F1" height="10" style="stroke:#181818;stroke-width:0.5;" width="15" x="143" y="47"/><rect fill="#F1F1F1" height="2" style="stroke:#181818;stroke-width:0.5;" width="4" x="141" y="49"/><rect fill="#F1F1F1" height="2" style="stroke:#181818;stroke-width:0.5;" width="4" x="141" y="53"/><text fill="#000000" font-family="sans-serif" font-size="14" lengthAdjust="spacing" textLength="100" x="38" y="74.9951">Client Browser</text></g><!--entity iSpindel--><g id="elem_iSpindel"><rect fill="#F1F1F1" height="46.2969" rx="2.5" ry="2.5" style="stroke:#181818;stroke-width:0.5;" width="94" x="219" y="42"/><rect fill="#F1F1F1" height="10" style="stroke:#181818;stroke-width:0.5;" width="15" x="293" y="47"/><rect fill="#F1F1F1" height="2" style="stroke:#181818;stroke-width:0.5;" width="4" x="291" y="49"/><rect fill="#F1F1F1" height="2" style="stroke:#181818;stroke-width:0.5;" width="4" x="291" y="53"/><text fill="#000000" font-family="sans-serif" font-size="14" lengthAdjust="spacing" textLength="54" x="234" y="74.9951">ISpindel</text></g><!--entity cloudflare--><g id="elem_cloudflare"><rect fill="#F1F1F1" height="46.2969" rx="2.5" ry="2.5" style="stroke:#181818;stroke-width:0.5;" width="109" x="117.5" y="163"/><rect fill="#F1F1F1" height="10" style="stroke:#181818;stroke-width:0.5;" width="15" x="206.5" y="168"/><rect fill="#F1F1F1" height="2" style="stroke:#181818;stroke-width:0.5;" width="4" x="204.5" y="170"/><rect fill="#F1F1F1" height="2" style="stroke:#181818;stroke-width:0.5;" width="4" x="204.5" y="174"/><text fill="#000000" font-family="sans-serif" font-size="14" lengthAdjust="spacing" textLength="69" x="132.5" y="195.9951">Cloudflare</text></g><!--entity hoppybrew--><g id="elem_hoppybrew"><rect fill="#F1F1F1" height="46.2969" rx="2.5" ry="2.5" style="stroke:#181818;stroke-width:0.5;" width="119" x="112.5" y="284"/><rect fill="#F1F1F1" height="10" style="stroke:#181818;stroke-width:0.5;" width="15" x="211.5" y="289"/><rect fill="#F1F1F1" height="2" style="stroke:#181818;stroke-width:0.5;" width="4" x="209.5" y="291"/><rect fill="#F1F1F1" height="2" style="stroke:#181818;stroke-width:0.5;" width="4" x="209.5" y="295"/><text fill="#000000" font-family="sans-serif" font-size="14" lengthAdjust="spacing" textLength="79" x="127.5" y="316.9951">HoppyBrew</text></g><!--entity postgres--><g id="elem_postgres"><rect fill="#F1F1F1" height="46.2969" rx="2.5" ry="2.5" style="stroke:#181818;stroke-width:0.5;" width="121" x="111.5" y="405"/><rect fill="#F1F1F1" height="10" style="stroke:#181818;stroke-width:0.5;" width="15" x="212.5" y="410"/><rect fill="#F1F1F1" height="2" style="stroke:#181818;stroke-width:0.5;" width="4" x="210.5" y="412"/><rect fill="#F1F1F1" height="2" style="stroke:#181818;stroke-width:0.5;" width="4" x="210.5" y="416"/><text fill="#000000" font-family="sans-serif" font-size="14" lengthAdjust="spacing" textLength="81" x="126.5" y="437.9951">PostgreSQL</text></g><!--link client_browser to cloudflare--><g id="link_client_browser_cloudflare"><path d="M107.67,88.1 C121.77,109.34 142.97,141.28 157.14,162.61 " fill="none" id="client_browser-cloudflare" style="stroke:#181818;stroke-width:1.0;"/></g><!--link iSpindel to cloudflare--><g id="link_iSpindel_cloudflare"><path d="M248.54,88.1 C231.76,109.34 206.54,141.28 189.69,162.61 " fill="none" id="iSpindel-cloudflare" style="stroke:#181818;stroke-width:1.0;"/></g><!--link cloudflare to hoppybrew--><g id="link_cloudflare_hoppybrew"><path d="M172,209.1 C172,230.34 172,262.28 172,283.61 " fill="none" id="cloudflare-hoppybrew" style="stroke:#181818;stroke-width:1.0;"/></g><!--link hoppybrew to postgres--><g id="link_hoppybrew_postgres"><path d="M172,330.1 C172,351.34 172,383.28 172,404.61 " fill="none" id="hoppybrew-postgres" style="stroke:#181818;stroke-width:1.0;"/></g><!--SRC=[RP113i8W54Jtd89qtqkq6qrSQ7e0G-ctaY2G3wPfZ7SNMbiGOVLd1Xu32DmnDKgWLIi5A4SRr9C5hEYBKB-uVXYjGl2tWLdA5-lQhnPv4u8HUEoCK0F80Yf67YA-8ZlUIlqSRf8X5Bl4SEcnoGnoqCRC3S9KO2IPHzo3whtA26TjtOZGNKu5H1fwXbcb3OZVhw5rdPRSdfpPSGn1RBHFmTul-G00]--></g></svg>