<?xml version="1.0" encoding="UTF-8" standalone="no"?><svg xmlns="http://www.w3.org/2000/svg" xmlns:xlink="http://www.w3.org/1999/xlink" contentStyleType="text/css" height="574px" preserveAspectRatio="none" style="width:690px;height:574px;background:#FFFFFF;" version="1.1" viewBox="0 0 690 574" width="690px" zoomAndPan="magnify"><defs/><g><!--MD5=[d217fdcdd94bad98a29d6a4e35598e9b]
cluster Beer Brewing Recipe Manager--><g id="cluster_Beer Brewing Recipe Manager"><rect fill="none" height="561" rx="2.5" ry="2.5" style="stroke:#181818;stroke-width:1.0;" width="254" x="316" y="7"/><text fill="#000000" font-family="sans-serif" font-size="14" font-weight="bold" lengthAdjust="spacing" textLength="238" x="324" y="21.9951">Beer Brewing Recipe Manager</text></g><g id="elem_Manage Users"><ellipse cx="442.8073" cy="58.8615" fill="#F1F1F1" rx="72.3073" ry="16.8615" style="stroke:#181818;stroke-width:0.5;"/><text fill="#000000" font-family="sans-serif" font-size="14" lengthAdjust="spacing" textLength="99" x="390.3073" y="62.609">Manage Users</text></g><g id="elem_Manage Water Profile"><ellipse cx="442.9431" cy="292.1886" fill="#F1F1F1" rx="91.4431" ry="20.6886" style="stroke:#181818;stroke-width:0.5;"/><text fill="#000000" font-family="sans-serif" font-size="14" lengthAdjust="spacing" textLength="145" x="370.4431" y="295.0353">Manage Water Profile</text></g><g id="elem_Manage Equipment\nProfile"><ellipse cx="443.0887" cy="374.2373" fill="#F1F1F1" rx="107.0887" ry="26.2373" style="stroke:#181818;stroke-width:0.5;"/><text fill="#000000" font-family="sans-serif" font-size="14" lengthAdjust="spacing" textLength="134" x="373.0887" y="369.8364">Manage Equipment</text><text fill="#000000" font-family="sans-serif" font-size="14" lengthAdjust="spacing" textLength="42" x="419.0887" y="386.1333">Profile</text></g><g id="elem_Calendar"><ellipse cx="443.0868" cy="450.2397" fill="#F1F1F1" rx="55.5868" ry="14.7397" style="stroke:#181818;stroke-width:0.5;"/><text fill="#000000" font-family="sans-serif" font-size="14" lengthAdjust="spacing" textLength="61" x="409.5868" y="453.9873">Calendar</text></g><g id="elem_Real-time\nData Collection"><ellipse cx="443.0244" cy="526.0473" fill="#F1F1F1" rx="85.0244" ry="26.0473" style="stroke:#181818;stroke-width:0.5;"/><text fill="#000000" font-family="sans-serif" font-size="14" lengthAdjust="spacing" textLength="65" x="410.5244" y="520.7455">Real-time</text><text fill="#000000" font-family="sans-serif" font-size="14" lengthAdjust="spacing" textLength="104" x="391.0244" y="537.0424">Data Collection</text></g><g id="elem_Generate Reports"><ellipse cx="442.788" cy="129.8576" fill="#F1F1F1" rx="82.288" ry="18.8576" style="stroke:#181818;stroke-width:0.5;"/><text fill="#000000" font-family="sans-serif" font-size="14" lengthAdjust="spacing" textLength="124" x="379.9505" y="132.9838">Generate Reports</text></g><g id="elem_Manage Own\nUser Account"><ellipse cx="443.2462" cy="210.0473" fill="#F1F1F1" rx="77.2462" ry="26.0473" style="stroke:#181818;stroke-width:0.5;"/><text fill="#000000" font-family="sans-serif" font-size="14" lengthAdjust="spacing" textLength="90" x="398.2462" y="204.7455">Manage Own</text><text fill="#000000" font-family="sans-serif" font-size="14" lengthAdjust="spacing" textLength="93" x="396.7462" y="221.0424">User Account</text></g><!--MD5=[97ab183161fd5d1db7fba7485cf76add]
entity Admin--><g id="elem_Admin"><ellipse cx="51.5" cy="154.5" fill="#F1F1F1" rx="8" ry="8" style="stroke:#181818;stroke-width:0.5;"/><path d="M51.5,162.5 L51.5,189.5 M38.5,170.5 L64.5,170.5 M51.5,189.5 L38.5,204.5 M51.5,189.5 L64.5,204.5 " fill="none" style="stroke:#181818;stroke-width:0.5;"/><text fill="#000000" font-family="sans-serif" font-size="14" lengthAdjust="spacing" textLength="91" x="6" y="218.9951">Administrator</text></g><!--MD5=[0f0393d8d415f043cde3304330b7d866]
entity Brew--><g id="elem_Brew"><ellipse cx="182.5" cy="262.5" fill="#F1F1F1" rx="8" ry="8" style="stroke:#181818;stroke-width:0.5;"/><path d="M182.5,270.5 L182.5,297.5 M169.5,278.5 L195.5,278.5 M182.5,297.5 L169.5,312.5 M182.5,297.5 L195.5,312.5 " fill="none" style="stroke:#181818;stroke-width:0.5;"/><text fill="#000000" font-family="sans-serif" font-size="14" lengthAdjust="spacing" textLength="49" x="158" y="326.9951">Brewer</text></g><!--MD5=[f9ba5bf973e7832d2ce5ed59077b93f7]
entity DB--><g id="elem_DB"><ellipse cx="650" cy="344.5" fill="#F1F1F1" rx="8" ry="8" style="stroke:#181818;stroke-width:0.5;"/><path d="M650,352.5 L650,379.5 M637,360.5 L663,360.5 M650,379.5 L637,394.5 M650,379.5 L663,394.5 " fill="none" style="stroke:#181818;stroke-width:0.5;"/><text fill="#000000" font-family="sans-serif" font-size="14" lengthAdjust="spacing" textLength="66" x="617" y="408.9951">Database</text></g><!--MD5=[b023a752e2e80a4fe53bce48055e3685]
entity Spindel--><g id="elem_Spindel"><ellipse cx="650" cy="496.5" fill="#F1F1F1" rx="8" ry="8" style="stroke:#181818;stroke-width:0.5;"/><path d="M650,504.5 L650,531.5 M637,512.5 L663,512.5 M650,531.5 L637,546.5 M650,531.5 L663,546.5 " fill="none" style="stroke:#181818;stroke-width:0.5;"/><text fill="#000000" font-family="sans-serif" font-size="14" lengthAdjust="spacing" textLength="54" x="623" y="560.9951">ISpindel</text></g><!--MD5=[23cf689d2006e9ea0ac5312599c037ea]
link Admin to Brew--><g id="link_Admin_Brew"><path d="M97.26,221.47 C117.63,238.53 140.92,258.02 157.83,272.19 " fill="none" id="Admin-Brew" style="stroke:#181818;stroke-width:1.0;"/></g><!--MD5=[4dfa6b47b8b516e6319ced91c261aa06]
link Admin to Manage Users--><g id="link_Admin_Manage Users"><path d="M97.24,166.38 C147.86,146.83 233.04,115.14 308,93 C333.46,85.48 361.95,78.11 386.08,72.16 " fill="none" id="Admin-to-Manage Users" style="stroke:#181818;stroke-width:1.0;"/><polygon fill="#181818" points="391.16,70.92,381.4681,69.1685,386.3026,72.1058,383.3654,76.9403,391.16,70.92" style="stroke:#181818;stroke-width:1.0;"/></g><!--MD5=[cb22f8a04bc45a9428a45d2a9c7b11e3]
link Brew to Manage Water Profile--><g id="link_Brew_Manage Water Profile"><path d="M207.36,292 C238.83,292 296.12,292 346.21,292 " fill="none" id="Brew-to-Manage Water Profile" style="stroke:#181818;stroke-width:1.0;"/><polygon fill="#181818" points="351.34,292,342.34,288,346.34,292,342.34,296,351.34,292" style="stroke:#181818;stroke-width:1.0;"/></g><!--MD5=[085d9156b750a06ed54945f057220333]
link Brew to Manage Equipment\nProfile--><g id="link_Brew_Manage Equipment\nProfile"><path d="M207.36,299.57 C244.48,311.34 317.5,334.51 372.28,351.88 " fill="none" id="Brew-to-Manage Equipment\nProfile" style="stroke:#181818;stroke-width:1.0;"/><polygon fill="#181818" points="377.19,353.44,369.8216,346.9049,372.4242,351.9275,367.4017,354.5301,377.19,353.44" style="stroke:#181818;stroke-width:1.0;"/></g><!--MD5=[2210af98a80c486f1612050fe147725e]
link Brew to Calendar--><g id="link_Brew_Calendar"><path d="M207.17,324.72 C229.83,353.62 266.6,394.69 308,418 C331.84,431.42 361.12,439.24 386.23,443.78 " fill="none" id="Brew-to-Calendar" style="stroke:#181818;stroke-width:1.0;"/><polygon fill="#181818" points="391.19,444.65,383.0239,439.1441,386.2664,443.7794,381.631,447.0219,391.19,444.65" style="stroke:#181818;stroke-width:1.0;"/></g><!--MD5=[c36d009701241c5f9ae1e446ae90f75c]
link Brew to Real-time\nData Collection--><g id="link_Brew_Real-time\nData Collection"><path d="M194.14,330.24 C202.85,357.25 217.01,393.42 237,421 C261.41,454.69 271.76,461.56 308,482 C327.35,492.91 349.81,501.62 370.76,508.31 " fill="none" id="Brew-to-Real-time\nData Collection" style="stroke:#181818;stroke-width:1.0;"/><polygon fill="#181818" points="375.76,509.88,368.3561,503.3852,370.9861,508.3935,365.9777,511.0235,375.76,509.88" style="stroke:#181818;stroke-width:1.0;"/></g><!--MD5=[d29031a691e33ea73820b9b1013e9dba]
link Brew to Generate Reports--><g id="link_Brew_Generate Reports"><path d="M187.91,253.69 C193.67,222.33 206.86,179.44 237,156 C272.24,128.59 321.66,121.68 363.15,121.83 " fill="none" id="Brew-to-Generate Reports" style="stroke:#181818;stroke-width:1.0;"/><polygon fill="#181818" points="368.16,121.88,359.1946,117.803,363.1602,121.8371,359.126,125.8027,368.16,121.88" style="stroke:#181818;stroke-width:1.0;"/></g><!--MD5=[2eb6abc0574904c2bd540b590bdee26a]
link Brew to Manage Own\nUser Account--><g id="link_Brew_Manage Own\nUser Account"><path d="M207.05,279.38 C216.23,274.78 226.95,269.78 237,266 C281.29,249.35 332.65,235.33 372.88,225.48 " fill="none" id="Brew-to-Manage Own\nUser Account" style="stroke:#181818;stroke-width:1.0;"/><polygon fill="#181818" points="378.23,224.18,368.5381,222.4285,373.3726,225.3658,370.4354,230.2003,378.23,224.18" style="stroke:#181818;stroke-width:1.0;"/></g><!--MD5=[6bba679f47b71fd05b49eaab4e59def8]
link Manage Users to Manage Own\nUser Account--><g id="link_Manage Users_Manage Own\nUser Account"><path d="M375.8,65.54 C352.64,70.36 327.62,78.68 308,93 C254.73,131.87 241.78,148.43 266,177.5 C289.25,205.41 327.9,214.67 363.16,216.47 " fill="none" id="Manage Users-to-Manage Own\nUser Account" style="stroke:#181818;stroke-width:1.0;stroke-dasharray:7.0,7.0;"/><polygon fill="#181818" points="368.34,216.68,359.5076,212.3225,363.344,216.4796,359.1869,220.316,368.34,216.68" style="stroke:#181818;stroke-width:1.0;"/><text fill="#000000" font-family="sans-serif" font-size="13" lengthAdjust="spacing" textLength="61" x="238" y="173.5669">«Include»</text></g><!--MD5=[b20206c33fe7d78c25782ca841813f57]
reverse link Real-time\nData Collection to Spindel--><g id="link_Real-time\nData Collection_Spindel"><path d="M533.47,526 C565.98,526 600.28,526 622.97,526 " fill="none" id="Real-time\nData Collection-backto-Spindel" style="stroke:#181818;stroke-width:1.0;"/><polygon fill="#181818" points="528.27,526,537.27,530,533.27,526,537.27,522,528.27,526" style="stroke:#181818;stroke-width:1.0;"/></g><!--MD5=[50aa5e9913f75e17ccc363ceda6ddb05]
link Real-time\nData Collection to DB--><g id="link_Real-time\nData Collection_DB"><path d="M515.46,512.14 C537.04,505.53 559.82,495.91 578,482 C601.79,463.79 620.07,435.21 632.13,412.02 " fill="none" id="Real-time\nData Collection-DB" style="stroke:#181818;stroke-width:1.0;"/></g><!--MD5=[75c8ed7c0fd4e7123a2f19247a4f0080]
link Manage Water Profile to DB--><g id="link_Manage Water Profile_DB"><path d="M507.24,306.75 C530.01,313.01 555.59,321.16 578,331 C589.54,336.07 601.49,342.7 612.22,349.23 " fill="none" id="Manage Water Profile-to-DB" style="stroke:#181818;stroke-width:1.0;"/><polygon fill="#181818" points="616.74,352.01,611.1836,343.8782,612.4856,349.3831,606.9807,350.6852,616.74,352.01" style="stroke:#181818;stroke-width:1.0;"/></g><!--MD5=[11f5f9750f7454240be5ee291a79f4f7]
link Manage Equipment\nProfile to DB--><g id="link_Manage Equipment\nProfile_DB"><path d="M550.1,374 C572.06,374 593.8,374 611.28,374 " fill="none" id="Manage Equipment\nProfile-to-DB" style="stroke:#181818;stroke-width:1.0;"/><polygon fill="#181818" points="616.56,374,607.56,370,611.56,374,607.56,378,616.56,374" style="stroke:#181818;stroke-width:1.0;"/></g><!--MD5=[f9ba1028132f91fdb284de6d880a5e45]
link Calendar to DB--><g id="link_Calendar_DB"><path d="M491.05,442.59 C517.28,437.52 550.18,429.59 578,418 C589.82,413.08 601.93,406.32 612.72,399.57 " fill="none" id="Calendar-to-DB" style="stroke:#181818;stroke-width:1.0;"/><polygon fill="#181818" points="616.95,396.89,607.2083,398.3387,612.7293,399.5707,611.4974,405.0918,616.95,396.89" style="stroke:#181818;stroke-width:1.0;"/></g><!--MD5=[f718075c607fead74e0d50c23fc3c593]
link Generate Reports to DB--><g id="link_Generate Reports_DB"><path d="M518.96,137.45 C540.21,142.83 561.92,151.87 578,167 C625.46,211.65 641.19,289.37 646.41,335.82 " fill="none" id="Generate Reports-DB" style="stroke:#181818;stroke-width:1.0;"/></g><!--MD5=[cf354a0cfde52906cb4095490c3e6ad2]
@startuml

left to right direction

actor Administrator as Admin
actor Brewer as Brew
actor Database as DB
actor ISpindel as Spindel

Admin - - Brew

rectangle "Beer Brewing Recipe Manager" {
    Admin - -> (Manage Users)
    Brew - -> (Manage Water Profile)
    Brew - -> (Manage Equipment\nProfile)
    Brew - -> (Calendar)
    Brew - -> (Real-time\nData Collection)
    Brew - -> (Generate Reports)
    Brew - -> (Manage Own\nUser Account)

    (Manage Users) .> (Manage Own\nUser Account) : <<Include>>
    (Real-time\nData Collection) <- - Spindel
    (Real-time\nData Collection) - - DB
    (Manage Water Profile) - -> DB
    (Manage Equipment\nProfile) - -> DB
    (Calendar) - -> DB
    (Generate Reports) - - DB
}

@enduml

PlantUML version 1.2022.7(Mon Aug 22 19:01:30 CEST 2022)
(GPL source distribution)
Java Runtime: Java(TM) SE Runtime Environment
JVM: Java HotSpot(TM) 64-Bit Server VM
Default Encoding: UTF-8
Language: en
Country: US
--></g></svg>