<?xml version="1.0" encoding="UTF-8" standalone="no"?><svg xmlns="http://www.w3.org/2000/svg" xmlns:xlink="http://www.w3.org/1999/xlink" contentStyleType="text/css" height="1008px" preserveAspectRatio="none" style="width:544px;height:1008px;background:#FFFFFF;" version="1.1" viewBox="0 0 544 1008" width="544px" zoomAndPan="magnify"><defs/><g><line style="stroke:#181818;stroke-width:0.5;stroke-dasharray:5.0,5.0;" x1="79" x2="79" y1="81.2969" y2="927.8828"/><line style="stroke:#181818;stroke-width:0.5;stroke-dasharray:5.0,5.0;" x1="344.5" x2="344.5" y1="81.2969" y2="927.8828"/><line style="stroke:#181818;stroke-width:0.5;stroke-dasharray:5.0,5.0;" x1="498" x2="498" y1="81.2969" y2="927.8828"/><text fill="#000000" font-family="sans-serif" font-size="14" lengthAdjust="spacing" textLength="32" x="60" y="77.9951">User</text><ellipse cx="79" cy="13.5" fill="#E2E2F0" rx="8" ry="8" style="stroke:#181818;stroke-width:0.5;"/><path d="M79,21.5 L79,48.5 M66,29.5 L92,29.5 M79,48.5 L66,63.5 M79,48.5 L92,63.5 " fill="none" style="stroke:#181818;stroke-width:0.5;"/><text fill="#000000" font-family="sans-serif" font-size="14" lengthAdjust="spacing" textLength="32" x="60" y="939.8779">User</text><ellipse cx="79" cy="951.6797" fill="#E2E2F0" rx="8" ry="8" style="stroke:#181818;stroke-width:0.5;"/><path d="M79,959.6797 L79,986.6797 M66,967.6797 L92,967.6797 M79,986.6797 L66,1001.6797 M79,986.6797 L92,1001.6797 " fill="none" style="stroke:#181818;stroke-width:0.5;"/><rect fill="#E2E2F0" height="30.2969" rx="2.5" ry="2.5" style="stroke:#181818;stroke-width:0.5;" width="65" x="312.5" y="50"/><text fill="#000000" font-family="sans-serif" font-size="14" lengthAdjust="spacing" textLength="51" x="319.5" y="69.9951">System</text><rect fill="#E2E2F0" height="30.2969" rx="2.5" ry="2.5" style="stroke:#181818;stroke-width:0.5;" width="65" x="312.5" y="926.8828"/><text fill="#000000" font-family="sans-serif" font-size="14" lengthAdjust="spacing" textLength="51" x="319.5" y="946.8779">System</text><rect fill="#E2E2F0" height="30.2969" rx="2.5" ry="2.5" style="stroke:#181818;stroke-width:0.5;" width="80" x="458" y="50"/><text fill="#000000" font-family="sans-serif" font-size="14" lengthAdjust="spacing" textLength="66" x="465" y="69.9951">Database</text><rect fill="#E2E2F0" height="30.2969" rx="2.5" ry="2.5" style="stroke:#181818;stroke-width:0.5;" width="80" x="458" y="926.8828"/><text fill="#000000" font-family="sans-serif" font-size="14" lengthAdjust="spacing" textLength="66" x="465" y="946.8779">Database</text><polygon fill="#181818" points="333,108.4297,343,112.4297,333,116.4297,337,112.4297" style="stroke:#181818;stroke-width:1.0;"/><line style="stroke:#181818;stroke-width:1.0;" x1="79" x2="339" y1="112.4297" y2="112.4297"/><text fill="#000000" font-family="sans-serif" font-size="13" lengthAdjust="spacing" textLength="187" x="86" y="107.3638">Navigate to registration page</text><polygon fill="#181818" points="333,137.5625,343,141.5625,333,145.5625,337,141.5625" style="stroke:#181818;stroke-width:1.0;"/><line style="stroke:#181818;stroke-width:1.0;" x1="79" x2="339" y1="141.5625" y2="141.5625"/><text fill="#000000" font-family="sans-serif" font-size="13" lengthAdjust="spacing" textLength="242" x="86" y="136.4966">Enter email, username, and password</text><polygon fill="#181818" points="333,166.6953,343,170.6953,333,174.6953,337,170.6953" style="stroke:#181818;stroke-width:1.0;"/><line style="stroke:#181818;stroke-width:1.0;" x1="79" x2="339" y1="170.6953" y2="170.6953"/><text fill="#000000" font-family="sans-serif" font-size="13" lengthAdjust="spacing" textLength="141" x="86" y="165.6294">Click "Register" button</text><line style="stroke:#181818;stroke-width:1.0;" x1="345" x2="387" y1="199.8281" y2="199.8281"/><line style="stroke:#181818;stroke-width:1.0;" x1="387" x2="387" y1="199.8281" y2="212.8281"/><line style="stroke:#181818;stroke-width:1.0;" x1="346" x2="387" y1="212.8281" y2="212.8281"/><polygon fill="#181818" points="356,208.8281,346,212.8281,356,216.8281,352,212.8281" style="stroke:#181818;stroke-width:1.0;"/><text fill="#000000" font-family="sans-serif" font-size="13" lengthAdjust="spacing" textLength="120" x="352" y="194.7622">Validate user input</text><polygon fill="#181818" points="486,237.9609,496,241.9609,486,245.9609,490,241.9609" style="stroke:#181818;stroke-width:1.0;"/><line style="stroke:#181818;stroke-width:1.0;" x1="345" x2="492" y1="241.9609" y2="241.9609"/><text fill="#000000" font-family="sans-serif" font-size="13" lengthAdjust="spacing" textLength="104" x="352" y="236.895">Create new user</text><polygon fill="#181818" points="90,267.0938,80,271.0938,90,275.0938,86,271.0938" style="stroke:#181818;stroke-width:1.0;"/><line style="stroke:#181818;stroke-width:1.0;" x1="84" x2="344" y1="271.0938" y2="271.0938"/><text fill="#000000" font-family="sans-serif" font-size="13" lengthAdjust="spacing" textLength="156" x="96" y="266.0278">Send confirmation email</text><line style="stroke:#181818;stroke-width:1.0;" x1="79" x2="121" y1="300.2266" y2="300.2266"/><line style="stroke:#181818;stroke-width:1.0;" x1="121" x2="121" y1="300.2266" y2="313.2266"/><line style="stroke:#181818;stroke-width:1.0;" x1="80" x2="121" y1="313.2266" y2="313.2266"/><polygon fill="#181818" points="90,309.2266,80,313.2266,90,317.2266,86,313.2266" style="stroke:#181818;stroke-width:1.0;"/><text fill="#000000" font-family="sans-serif" font-size="13" lengthAdjust="spacing" textLength="172" x="86" y="295.1606">Receive confirmation email</text><polygon fill="#181818" points="333,338.3594,343,342.3594,333,346.3594,337,342.3594" style="stroke:#181818;stroke-width:1.0;"/><line style="stroke:#181818;stroke-width:1.0;" x1="79" x2="339" y1="342.3594" y2="342.3594"/><text fill="#000000" font-family="sans-serif" font-size="13" lengthAdjust="spacing" textLength="138" x="86" y="337.2935">Click confirmation link</text><line style="stroke:#181818;stroke-width:1.0;" x1="345" x2="387" y1="371.4922" y2="371.4922"/><line style="stroke:#181818;stroke-width:1.0;" x1="387" x2="387" y1="371.4922" y2="384.4922"/><line style="stroke:#181818;stroke-width:1.0;" x1="346" x2="387" y1="384.4922" y2="384.4922"/><polygon fill="#181818" points="356,380.4922,346,384.4922,356,388.4922,352,384.4922" style="stroke:#181818;stroke-width:1.0;"/><text fill="#000000" font-family="sans-serif" font-size="13" lengthAdjust="spacing" textLength="139" x="352" y="366.4263">Activate user account</text><polygon fill="#181818" points="333,409.625,343,413.625,333,417.625,337,413.625" style="stroke:#181818;stroke-width:1.0;"/><line style="stroke:#181818;stroke-width:1.0;" x1="79" x2="339" y1="413.625" y2="413.625"/><text fill="#000000" font-family="sans-serif" font-size="13" lengthAdjust="spacing" textLength="38" x="86" y="408.5591">Log in</text><polygon fill="#181818" points="90,438.7578,80,442.7578,90,446.7578,86,442.7578" style="stroke:#181818;stroke-width:1.0;"/><line style="stroke:#181818;stroke-width:1.0;" x1="84" x2="344" y1="442.7578" y2="442.7578"/><text fill="#000000" font-family="sans-serif" font-size="13" lengthAdjust="spacing" textLength="146" x="96" y="437.6919">Redirect to home page</text><polygon fill="#181818" points="333,467.8906,343,471.8906,333,475.8906,337,471.8906" style="stroke:#181818;stroke-width:1.0;"/><line style="stroke:#181818;stroke-width:1.0;" x1="79" x2="339" y1="471.8906" y2="471.8906"/><text fill="#000000" font-family="sans-serif" font-size="13" lengthAdjust="spacing" textLength="76" x="86" y="466.8247">Use system</text><polygon fill="#181818" points="333,497.0234,343,501.0234,333,505.0234,337,501.0234" style="stroke:#181818;stroke-width:1.0;"/><line style="stroke:#181818;stroke-width:1.0;" x1="79" x2="339" y1="501.0234" y2="501.0234"/><text fill="#000000" font-family="sans-serif" font-size="13" lengthAdjust="spacing" textLength="48" x="86" y="495.9575">Log out</text><polygon fill="#181818" points="333,526.1563,343,530.1563,333,534.1563,337,530.1563" style="stroke:#181818;stroke-width:1.0;"/><line style="stroke:#181818;stroke-width:1.0;" x1="79" x2="339" y1="530.1563" y2="530.1563"/><text fill="#000000" font-family="sans-serif" font-size="13" lengthAdjust="spacing" textLength="97" x="86" y="525.0903">Delete account</text><polygon fill="#181818" points="333,555.2891,343,559.2891,333,563.2891,337,559.2891" style="stroke:#181818;stroke-width:1.0;"/><line style="stroke:#181818;stroke-width:1.0;" x1="79" x2="339" y1="559.2891" y2="559.2891"/><text fill="#000000" font-family="sans-serif" font-size="13" lengthAdjust="spacing" textLength="100" x="86" y="554.2231">Reset password</text><polygon fill="#181818" points="333,584.4219,343,588.4219,333,592.4219,337,588.4219" style="stroke:#181818;stroke-width:1.0;"/><line style="stroke:#181818;stroke-width:1.0;" x1="79" x2="339" y1="588.4219" y2="588.4219"/><text fill="#000000" font-family="sans-serif" font-size="13" lengthAdjust="spacing" textLength="113" x="86" y="583.356">Change password</text><polygon fill="#181818" points="90,637.6875,80,641.6875,90,645.6875,86,641.6875" style="stroke:#181818;stroke-width:1.0;"/><line style="stroke:#181818;stroke-width:1.0;" x1="84" x2="344" y1="641.6875" y2="641.6875"/><text fill="#000000" font-family="sans-serif" font-size="13" lengthAdjust="spacing" textLength="144" x="96" y="636.6216">Display error message</text><polygon fill="#181818" points="90,690.9531,80,694.9531,90,698.9531,86,694.9531" style="stroke:#181818;stroke-width:1.0;"/><line style="stroke:#181818;stroke-width:1.0;" x1="84" x2="344" y1="694.9531" y2="694.9531"/><text fill="#000000" font-family="sans-serif" font-size="13" lengthAdjust="spacing" textLength="144" x="96" y="689.8872">Display error message</text><line style="stroke:#181818;stroke-width:1.0;" x1="79" x2="121" y1="748.2188" y2="748.2188"/><line style="stroke:#181818;stroke-width:1.0;" x1="121" x2="121" y1="748.2188" y2="761.2188"/><line style="stroke:#181818;stroke-width:1.0;" x1="80" x2="121" y1="761.2188" y2="761.2188"/><polygon fill="#181818" points="90,757.2188,80,761.2188,90,765.2188,86,761.2188" style="stroke:#181818;stroke-width:1.0;"/><text fill="#000000" font-family="sans-serif" font-size="13" lengthAdjust="spacing" textLength="119" x="86" y="743.1528">Check spam folder</text><line style="stroke:#181818;stroke-width:1.0;" x1="79" x2="121" y1="790.3516" y2="790.3516"/><line style="stroke:#181818;stroke-width:1.0;" x1="121" x2="121" y1="790.3516" y2="803.3516"/><line style="stroke:#181818;stroke-width:1.0;" x1="80" x2="121" y1="803.3516" y2="803.3516"/><polygon fill="#181818" points="90,799.3516,80,803.3516,90,807.3516,86,803.3516" style="stroke:#181818;stroke-width:1.0;"/><text fill="#000000" font-family="sans-serif" font-size="13" lengthAdjust="spacing" textLength="103" x="86" y="785.2856">Contact support</text><polygon fill="#181818" points="90,852.6172,80,856.6172,90,860.6172,86,856.6172" style="stroke:#181818;stroke-width:1.0;"/><line style="stroke:#181818;stroke-width:1.0;" x1="84" x2="344" y1="856.6172" y2="856.6172"/><text fill="#000000" font-family="sans-serif" font-size="13" lengthAdjust="spacing" textLength="144" x="96" y="851.5513">Display error message</text><polygon fill="#181818" points="90,905.8828,80,909.8828,90,913.8828,86,909.8828" style="stroke:#181818;stroke-width:1.0;"/><line style="stroke:#181818;stroke-width:1.0;" x1="84" x2="344" y1="909.8828" y2="909.8828"/><text fill="#000000" font-family="sans-serif" font-size="13" lengthAdjust="spacing" textLength="144" x="96" y="904.8169">Display error message</text><!--MD5=[da519929589fed939b7a6c0d67ec4194]
@startuml
actor User
participant System
participant Database

User -> System: Navigate to registration page
User -> System: Enter email, username, and password
User -> System: Click "Register" button
System -> System: Validate user input
System -> Database: Create new user
System -> User: Send confirmation email
User -> User: Receive confirmation email
User -> System: Click confirmation link
System -> System: Activate user account
User -> System: Log in
System -> User: Redirect to home page
User -> System: Use system
User -> System: Log out
User -> System: Delete account
User -> System: Reset password
User -> System: Change password

alt Invalid input
System -> User: Display error message

alt Existing user
System -> User: Display error message

alt Confirmation email not received
User -> User: Check spam folder
User -> User: Contact support

alt Incorrect confirmation code
System -> User: Display error message

alt Incorrect login credentials
System -> User: Display error message

@enduml

PlantUML version 1.2022.7(Mon Aug 22 19:01:30 CEST 2022)
(GPL source distribution)
Java Runtime: Java(TM) SE Runtime Environment
JVM: Java HotSpot(TM) 64-Bit Server VM
Default Encoding: UTF-8
Language: en
Country: US
--></g></svg>